<?xml version="1.0" encoding="utf-8"?>
<!-- Generator: Adobe Illustrator 22.0.1, SVG Export Plug-In . SVG Version: 6.00 Build 0)  -->
<svg version="1.1" xmlns="http://www.w3.org/2000/svg" xmlns:xlink="http://www.w3.org/1999/xlink" x="0px" y="0px"
	 viewBox="0 0 236.1 95.8" style="enable-background:new 0 0 236.1 95.8;" xml:space="preserve">
<style type="text/css">
	.st0{fill:#FFFFFF;}
	.st1{fill:#9D9D9C;}
	.st2{fill:#226462;}
	.st3{fill:#F4971A;}
	.st4{fill:#732727;}
	.st5{fill:#A99C2F;}
	.st6{fill:#B2B2B2;}
</style>
<g id="Calque_1">
</g>
<g id="Calque_9">
</g>
<g id="Calque_6">
</g>
<g id="Calque_7">
</g>
<g id="Calque_8">
</g>
<g id="Calque_2">
	<g>
		<g>
			<path class="st0" d="M3.7,49.4c1.6,0,2.7-0.8,3.7-1.9h0.1l0.3,1.6h2.9V37.3H7.1v7.9c-0.7,0.9-1.2,1.3-2.1,1.3
				c-1,0-1.5-0.5-1.5-2.2v-6.9H0v7.4C0,47.6,1.1,49.4,3.7,49.4z"/>
			<path class="st0" d="M24.5,49.2v-7.4c0-3-1.1-4.8-3.7-4.8c-1.6,0-2.8,0.8-3.8,1.8h-0.1l-0.3-1.5h-2.9v11.9h3.5v-8
				c0.8-0.7,1.3-1.2,2.2-1.2c1,0,1.5,0.5,1.5,2.2v6.9H24.5z"/>
			<path class="st0" d="M37.4,42.7c0-3.2-1.7-5.7-5.1-5.7c-2.9,0-5.6,2.4-5.6,6.2c0,3.9,2.6,6.2,6,6.2c1.4,0,3-0.5,4.2-1.3L35.8,46
				c-0.9,0.5-1.7,0.8-2.6,0.8c-1.6,0-2.8-0.8-3.1-2.5h7.1C37.3,44,37.4,43.3,37.4,42.7z M30.1,41.9c0.2-1.5,1.2-2.2,2.3-2.2
				c1.4,0,2,0.9,2,2.2H30.1z"/>
			<path class="st0" d="M44.5,38.5l1.3,2.3c1.2-0.7,2.1-1.1,3.1-1.1c1.3,0,1.8,0.7,1.9,1.7c-4.7,0.5-6.7,1.9-6.7,4.4
				c0,2,1.4,3.6,3.5,3.6c1.3,0,2.5-0.6,3.5-1.5h0.1l0.3,1.2h2.9v-6.8c0-3.6-1.7-5.4-4.7-5.4C47.7,37,46,37.6,44.5,38.5z M50.8,45.7
				c-0.6,0.6-1.2,1-2,1c-0.8,0-1.4-0.4-1.4-1.1c0-0.9,0.8-1.6,3.3-2V45.7z"/>
			<path class="st0" d="M57.2,37.3v7.4c0,3,1.1,4.8,3.7,4.8c1.6,0,2.7-0.8,3.7-1.9h0.1l0.3,1.6h2.9V37.3h-3.5v7.9
				c-0.7,0.9-1.2,1.3-2.1,1.3c-1,0-1.5-0.5-1.5-2.2v-6.9H57.2z"/>
			<path class="st0" d="M77.8,40v-2.8h-2.8v-3.2H72l-0.4,3.2l-1.8,0.1V40h1.6v4.8c0,2.8,1.2,4.6,4.1,4.6c1.2,0,2-0.2,2.6-0.4
				l-0.6-2.6c-0.3,0.1-0.7,0.2-1.1,0.2c-0.9,0-1.5-0.5-1.5-1.9V40H77.8z"/>
			<path class="st0" d="M83.6,42.3c0.6-1.6,1.7-2.2,2.6-2.2c0.5,0,0.9,0.1,1.3,0.2l0.6-3c-0.3-0.2-0.7-0.2-1.4-0.2
				c-1.2,0-2.5,0.8-3.4,2.4h-0.1L83,37.3h-2.9v11.9h3.5V42.3z"/>
			<path class="st0" d="M99.4,42.7c0-3.2-1.7-5.7-5.1-5.7c-2.9,0-5.6,2.4-5.6,6.2c0,3.9,2.6,6.2,6,6.2c1.4,0,3-0.5,4.2-1.3L97.8,46
				c-0.9,0.5-1.7,0.8-2.6,0.8c-1.6,0-2.8-0.8-3.1-2.5h7.1C99.3,44,99.4,43.3,99.4,42.7z M92.1,41.9c0.2-1.5,1.2-2.2,2.3-2.2
				c1.4,0,2,0.9,2,2.2H92.1z"/>
			<path class="st0" d="M30.1,67.5c0-9.9-7.2-13.1-16.2-13.1H0V95h9.2V81.3h5C22.8,81.3,30.1,77,30.1,67.5z M13.7,74H9.2V61.7h4.2
				c5,0,7.7,1.5,7.7,5.8C21.1,71.7,18.7,74,13.7,74z"/>
			<path class="st0" d="M40.8,85.4h12.4l2.5,9.7h9.7L52.7,54.4h-11L28.9,95h9.4L40.8,85.4z M46.8,61.3h0.2c1.1,4.2,2.2,9.1,3.3,13.1
				l1,3.8h-8.7l1-3.8C44.8,70.4,45.9,65.6,46.8,61.3z"/>
			<path class="st0" d="M99.4,89.8l-4.8-5.8c-2,2.2-4.6,3.8-8,3.8c-5.9,0-9.8-4.9-9.8-13.2c0-8.2,4.4-13.1,10-13.1
				c2.9,0,5.1,1.3,7.2,3.2l4.8-5.9c-2.7-2.8-7-5.3-12.2-5.3c-10.3,0-19.2,7.8-19.2,21.3c0,13.7,8.6,20.8,18.9,20.8
				C91.5,95.8,96,93.8,99.4,89.8z"/>
			<path class="st0" d="M236.1,67.8c0-1.4-1.1-2.5-2.5-2.5h-7.5l0-55.6h0l0-0.2c0-1.4-1.1-2.5-2.5-2.5c-1.4,0-2.5,1.1-2.5,2.5l0,0.2
				h0l0,55.6h-7.5c-1.4,0-2.5,1.1-2.5,2.5l0,27.3h2.5l0-24.8h5l0,24.8h2.5l0-24.8h5l0,24.8h2.5l0-24.8h5l0,24.8h2.5L236.1,67.8z"/>
			<path class="st0" d="M120.4,26.6c0-0.3,0-0.6,0-0.9c0-0.4-0.1-0.8-0.2-1.2l-1.2-7.6L117.8,7h-1.7v4.8v6.2v0.4v12.4
				c-0.1,0.5-0.5,1-1.1,1c-0.6,0-1.1-0.5-1.1-1.1l0,0h0V7h-2.2h0v23.9c-0.1,0.5-0.6,0.9-1.1,0.9c-0.5,0-1-0.4-1.1-0.9V7h0h-2.2v10.3
				v13.4h0l0,0c0,0.6-0.5,1.1-1.1,1.1c-0.6,0-1-0.4-1.1-1v-0.2V18.4v-0.4V7h-1.7l-1.2,9.9l-1.2,7.6c-0.1,0.4-0.1,0.8-0.2,1.2
				c0,0.3,0,0.6,0,0.9c0,0.4,0,0.8,0.1,1.2c0.2,1.9,1,3.6,2.1,5c0.2,0.3,0.5,0.5,0.7,0.8c0.2,0.2,0.5,0.4,0.7,0.6
				c0.8,0.8,1.6,1.7,2.2,2.6c0.6,0.9,1.1,1.8,1.5,2.8c0.8,1.9,1.2,4,1.2,6.2s-0.4,4.3-1.2,6.2v3.4V56v36.6c0,1.3,1,2.3,2.2,2.4
				c0.1,0,0.2,0,0.3,0c0.1,0,0.2,0,0.3,0c1.2-0.1,2.2-1.2,2.2-2.4V56v-0.6V52c-0.8-1.9-1.2-4-1.2-6.2s0.4-4.3,1.2-6.2
				c0.4-1,0.9-2,1.5-2.8c0.6-0.9,1.4-1.8,2.2-2.6c0.2-0.2,0.5-0.4,0.7-0.6c0.3-0.3,0.5-0.5,0.7-0.8c1.1-1.4,1.9-3.1,2.1-5
				C120.4,27.3,120.4,27,120.4,26.6z"/>
			<path class="st0" d="M7.2,21.2h4c6.8,0,12.5-3.3,12.5-10.9C23.7,2.5,18.1,0,11,0H0v32h7.2V21.2z M7.2,5.8h3.3
				c3.9,0,6.1,1.2,6.1,4.6c0,3.3-1.9,5.1-5.9,5.1H7.2V5.8z"/>
			<path class="st0" d="M38.1,32.6c6.2,0,11.9-4.7,11.9-12.8c0-8.1-5.7-12.8-11.9-12.8c-6.2,0-11.9,4.7-11.9,12.8
				C26.3,27.9,32,32.6,38.1,32.6z M38.1,12.9c3,0,4.5,2.7,4.5,7s-1.5,6.9-4.5,6.9c-3,0-4.5-2.7-4.5-6.9S35.2,12.9,38.1,12.9z"/>
			<path class="st0" d="M62.3,32.6c3.3,0,5.6-1.5,7.7-4h0.2l0.5,3.4h5.9V7.6h-7.2v16.1c-1.4,1.9-2.5,2.7-4.3,2.7c-2.1,0-3-1.1-3-4.6
				V7.6h-7.2v15.1C54.8,28.9,57,32.6,62.3,32.6z"/>
			<path class="st0" d="M90.2,17.9c1.3-3.3,3.5-4.5,5.4-4.5c1,0,1.8,0.2,2.6,0.4l0,0L99,7.4c-0.6-0.2-1.4-0.3-2.5-0.3
				c-2.5,0-5.1,1.6-6.9,4.9h-0.2l-0.5-4.3h-5.9V32h7.2V17.9z"/>
			<path class="st0" d="M205.2,29c-12.1-21-39-28.2-60.1-16.1S116.9,52,129,73c1.7,2.9,3.7,5.5,5.9,7.9l-6.4,12.2c0,0,0,0,0,0
				l-0.1,0.2l0,0c0,0.1-0.1,0.1-0.1,0.2c-0.1,0.7,0.3,1.3,1,1.5c0.3,0.1,0.6,0,0.9-0.2l0,0l0,0c0,0,0,0,0,0l11.8-7.8
				c1,0.7,2.1,1.4,3.2,2c1.6,0.9,3.3,1.7,5,2.5c1.7,0.7,3.3,1.3,5.1,1.8c1.7,0.5,3.4,0.8,5.1,1.1c1.7,0.3,3.4,0.4,5.1,0.5
				c1.7,0.1,3.3,0,5-0.1c1.7-0.1,3.3-0.4,4.9-0.7c1.6-0.3,3.2-0.7,4.8-1.2c1.6-0.5,3.1-1.1,4.6-1.7c1.5-0.6,2.9-1.4,4.4-2.2
				c1.4-0.8,2.8-1.7,4.1-2.7c1.3-1,2.6-2,3.8-3.1c1.2-1.1,2.4-2.3,3.4-3.5c1.1-1.3,2.1-2.6,3-3.9c1-1.4,1.8-2.8,2.6-4.3l2.1-4.7
				c0.6-1.6,1.2-3.3,1.6-5c0.4-1.7,0.8-3.5,1-5.3c0.2-1.8,0.4-3.7,0.4-5.5c0-1.9-0.1-3.8-0.4-5.7C210,39.8,208.2,34.2,205.2,29z
				 M206.1,54c-0.1,1.7-0.4,3.4-0.7,5.1c-0.3,1.6-0.8,3.3-1.4,4.9c-0.5,1.6-1.2,3.1-1.9,4.6c-0.7,1.5-1.5,2.9-2.4,4.2
				c-0.9,1.4-1.9,2.7-3,3.9c-1.1,1.3-2.3,2.5-3.6,3.6c-1.9,1.7-4.1,3.3-6.4,4.6c-2.3,1.4-4.8,2.4-7.3,3.3c-1.6,0.5-3.3,1-4.9,1.3
				c-1.6,0.3-3.2,0.5-4.9,0.6c-1.6,0.1-3.3,0.1-4.9,0c-1.7-0.1-3.3-0.3-4.9-0.6c-1.6-0.3-3.3-0.7-4.9-1.2c-1.6-0.5-3.2-1.2-4.8-1.9
				c-1.6-0.8-3.2-1.7-4.6-2.6c-1.5-1-3-2.2-4.4-3.4c-3-2.7-5.7-5.9-7.8-9.6c-10.8-18.7-4.4-42.6,14.3-53.4
				c18.7-10.8,42.6-4.4,53.4,14.3c2.1,3.7,3.6,7.6,4.4,11.6c0.4,1.8,0.6,3.7,0.7,5.5C206.2,50.4,206.2,52.2,206.1,54z"/>
			<path class="st0" d="M200,41.5c-0.8-2.6-1.8-5.2-3.2-7.6c-9.4-16.4-30.4-22-46.7-12.5c-16.4,9.4-22,30.4-12.5,46.7
				c1.4,2.4,3.1,4.6,5,6.6c1.3,1.3,2.6,2.5,4.1,3.6c1.4,1,2.9,2,4.4,2.8c1.5,0.8,3,1.5,4.6,2.1c1.5,0.6,3.1,1,4.7,1.3
				c1.6,0.3,3.2,0.6,4.9,0.7c1.6,0.1,3.3,0.1,5-0.1c1.8-0.2,3.6-0.4,5.3-0.9c3-0.8,6-1.9,8.9-3.6c2.8-1.6,5.3-3.6,7.5-5.9
				c1.3-1.3,2.4-2.7,3.4-4.2c1-1.4,1.8-2.8,2.5-4.3c0.7-1.5,1.4-3,1.9-4.5c0.5-1.6,0.9-3.2,1.2-4.8c0.3-1.6,0.5-3.3,0.5-5
				c0.1-1.7,0-3.5-0.2-5.2C200.8,45.1,200.5,43.3,200,41.5z M196,55.7c-0.3,1.6-0.7,3.2-1.2,4.7c-0.5,1.6-1.2,3.1-2,4.6
				c-0.9,1.6-1.9,3.2-3.1,4.6c-2.2,2.6-4.8,4.9-8,6.7c-3.1,1.8-6.5,3-9.9,3.5c-1.8,0.3-3.7,0.4-5.5,0.4c-1.7,0-3.4-0.2-5-0.6
				c-1.6-0.3-3.2-0.8-4.7-1.4c-1.5-0.6-3-1.3-4.4-2.1c-1.4-0.9-2.8-1.8-4.1-2.9c-1.3-1.1-2.6-2.4-3.7-3.8c-1-1.2-1.9-2.5-2.7-3.9
				c-8.1-14-3.3-32,10.7-40.1c14-8.1,32-3.3,40.1,10.7c0.8,1.4,1.5,2.8,2,4.3c0.6,1.7,1.1,3.4,1.4,5.1c0.3,1.7,0.5,3.4,0.5,5
				C196.4,52.4,196.3,54.1,196,55.7z"/>
		</g>
		<g>
			<path class="st0" d="M159.8,38.3c-5.6,3.2-8.2,9.5-7.1,15.5c0.2,0.9,1.3,1.3,2,0.7c0.9-0.8,1.7-1.6,2.6-2.4
				c2-1.7,4.2-3.3,6.5-4.7c0.5-0.3,1.1-0.6,1.6-0.9c0.1-0.1,0.2-0.2,0.4-0.2c2.1-1.1,4.2-2.1,6.5-2.9c0.2-0.1,0.3-0.1,0.5-0.2
				c0.7-0.3,2.2-0.7,3.5-1c0.1-0.1,0.3-0.2,0.4-0.2c0.5-0.5,0.6-1.3,0-1.9C172.1,36,165.3,35.1,159.8,38.3z"/>
			<path class="st0" d="M157.3,34.1c8.9-5.2,20.2-2.5,25.9,5.9c0.2,0.4,0.7,0.6,1.1,0.5c0.7-0.1,1.8-0.1,2.9-0.2c0.9,0,1.4-1,1-1.8
				c-3.8-6.7-16.7-17.3-33.3-8.7c-11.9,6.1-15.5,22.8-9,33.2c0.5,0.7,1.5,0.7,2,0c0.5-0.8,1.1-1.7,1.6-2.4c0.2-0.4,0.3-0.8,0.1-1.2
				C145.1,50.4,148.4,39.2,157.3,34.1z"/>
		</g>
		<g>
			<path class="st0" d="M174.2,56.5c-0.1,0.6-0.1,1.2-0.1,1.9c0,0.3,0,0.6,0.1,0.8c0.6-0.4,1.2-0.9,1.7-1.5c0,0.3,0.1,0.6,0.1,0.8
				c0.3,1.7,1.1,3.3,2.2,4.7c0.2,0.2,0.4,0.5,0.6,0.7c1.7-1.7,2.6-3.9,2.9-6.2c0.3,0.3,0.5,0.5,0.8,0.8c0.3,0.2,0.6,0.5,0.9,0.7
				c0-0.1,0-0.3,0-0.4c0-0.1,0-0.3,0-0.4c0-0.3,0-0.6,0-0.9c0-0.3-0.1-0.6-0.1-0.9c-0.1-0.6-0.2-1.2-0.4-1.8
				c-0.1-0.3-0.2-0.6-0.3-0.9c-0.4-0.9-0.9-1.7-1.4-2.4l-0.2-0.2c-0.3-0.3-0.6-0.6-1-0.7c-0.1,0-0.2-0.1-0.3-0.1
				c-0.2-0.1-0.4-0.1-0.7-0.1l-0.2,0h0l-0.2,0c-0.2,0-0.4,0.1-0.7,0.1c-0.1,0-0.2,0.1-0.3,0.1c-0.4,0.2-0.7,0.4-1,0.7l-0.2,0.2
				c-0.8,1-1.4,2.1-1.8,3.3C174.5,55.3,174.3,55.9,174.2,56.5z"/>
			<path class="st0" d="M176.5,46.1c0,0.3,0.1,0.6,0.2,0.9c0.1,0.3,0.3,0.5,0.5,0.7c0.2,0.2,0.5,0.4,0.7,0.5
				c0.3,0.1,0.6,0.2,0.9,0.2c0.3,0,0.6-0.1,0.9-0.2c0.1-0.1,0.3-0.1,0.4-0.2c0.2-0.2,0.5-0.4,0.6-0.6c0.3-0.4,0.4-0.8,0.4-1.3
				c0-0.5-0.1-0.9-0.4-1.3c-0.2-0.2-0.4-0.5-0.6-0.6c-0.1-0.1-0.3-0.2-0.4-0.2c-0.3-0.1-0.6-0.2-0.9-0.2c-0.3,0-0.6,0.1-0.9,0.2
				c-0.3,0.1-0.5,0.3-0.7,0.5c-0.2,0.2-0.4,0.5-0.5,0.7C176.6,45.5,176.5,45.8,176.5,46.1z"/>
		</g>
		<g>
			<path class="st0" d="M189.9,45.2c-0.3,0-0.5,0-0.8,0c-1.1,0-2.2,0.1-3.3,0.1c-0.8,0.1-1.5,0.1-2.3,0.2c0,0.2,0.1,0.3,0.1,0.5
				c0,1.2-0.4,2.3-1.2,3.1c0.1,0.1,0.3,0.2,0.4,0.4l0,0l0,0l0.2,0.2l0,0.1c0.2,0.2,0.3,0.4,0.5,0.6c1-0.1,2-0.3,3.1-0.3
				c0.8-0.1,1.7-0.1,2.5-0.1c0.4,0,0.7,0,1.1,0c0.7,0,1.3-0.6,1.2-1.3c-0.1-0.9-0.2-1.7-0.4-2.6C190.9,45.6,190.4,45.2,189.9,45.2z"
				/>
			<path class="st0" d="M163.2,60c2.7-2.4,5.8-4.5,9.2-6.1c0.5-1.4,1.2-2.8,2.2-4l0-0.1l0.2-0.2l0,0l0,0c0.1-0.1,0.3-0.3,0.4-0.4
				c-0.4-0.4-0.7-0.9-0.9-1.4c-1,0.3-1.9,0.7-2.9,1.1c-3,1.3-5.8,2.9-8.4,4.9c-1.3,1-2.6,2-3.8,3.1c-1.2,1.1-2.3,2.3-3.4,3.5
				c-1.1,1.3-2.1,2.6-3,3.9c-0.8,1.1-1.5,2.3-2.2,3.5c-0.3,0.5-0.2,1.1,0.2,1.5c0.7,0.6,1.3,1.1,2.1,1.6c0.6,0.4,1.4,0.2,1.8-0.4
				c0.6-1,1.2-2.1,1.8-3c0.9-1.4,1.9-2.7,3-3.9C160.7,62.3,161.9,61.1,163.2,60z"/>
			<path class="st0" d="M189.8,55c-0.2,0-0.4,0-0.7,0c-1,0-2,0.1-2.9,0.1c-0.2,0-0.4,0.1-0.6,0.1c0.2,1.1,0.4,2.1,0.3,3.2
				c0,0.3,0,0.7-0.1,1l-0.1,0.6c1.2-0.1,2.4-0.2,3.2-0.2c0.5,0,1-0.3,1.1-0.8c0.3-0.9,0.6-1.7,0.8-2.6C191.1,55.7,190.5,55,189.8,55
				z"/>
			<path class="st0" d="M174.6,61.9l-2.4,1.7l-0.4-3.8c-2.7,1.6-5.1,3.5-7.3,5.7c-1.2,1.3-2.4,2.7-3.4,4.2c-0.7,1-1.3,2-1.9,3
				c-0.4,0.7,0,1.5,0.7,1.7c0.9,0.3,1.7,0.5,2.6,0.6c0.5,0.1,1-0.2,1.3-0.6c0.8-1.4,1.7-2.7,2.7-3.9c2.4-3,5.5-5.3,8.9-7.1
				C175.1,62.9,174.8,62.4,174.6,61.9z"/>
			<path class="st0" d="M184.2,65.3c-5.2,1.1-9.9,3.8-13.3,7.7c-0.8,0.9,0,2.2,1.1,2c2.5-0.5,5-1.4,7.3-2.8c2.3-1.3,4.3-3,6-4.9
				C186.1,66.4,185.3,65,184.2,65.3z"/>
		</g>
	</g>
</g>
<g id="Calque_3">
</g>
<g id="_x39_5_x25_">
</g>
<g id="Calque_4">
</g>
<g id="Calque_5">
</g>
</svg>
